<svg id="livetype" xmlns="http://www.w3.org/2000/svg" viewBox="0 0 119.66 40"><defs><style>.cls-1{fill:#b1b3b5;}.cls-2{fill:#fff;}</style></defs><title>Pre-order_on_the_App_Store_Badge_US-UK_blk_120517</title><path class="cls-1" d="M110.13,0H7.52a13.51,13.51,0,0,0-2,.18,6.74,6.74,0,0,0-1.9.63A6.3,6.3,0,0,0,2,2,6.07,6.07,0,0,0,.82,3.62a6.74,6.74,0,0,0-.63,1.9,12.18,12.18,0,0,0-.17,2c0,.31,0,.62,0,.92V31.56c0,.31,0,.61,0,.92a12.18,12.18,0,0,0,.17,2,6.8,6.8,0,0,0,.63,1.91A6.19,6.19,0,0,0,2,38a6.07,6.07,0,0,0,1.62,1.18,6.74,6.74,0,0,0,1.9.63,13.51,13.51,0,0,0,2,.18H112.14a13.39,13.39,0,0,0,2-.18,6.91,6.91,0,0,0,1.91-.63A6.24,6.24,0,0,0,117.67,38a6.68,6.68,0,0,0,1.18-1.61,7.12,7.12,0,0,0,.62-1.91,13.39,13.39,0,0,0,.18-2c0-.31,0-.61,0-.92V8.44c0-.3,0-.61,0-.92a13.39,13.39,0,0,0-.18-2,7.05,7.05,0,0,0-.62-1.9A6.54,6.54,0,0,0,117.67,2,6.47,6.47,0,0,0,116.05.82a6.91,6.91,0,0,0-1.91-.63,13.39,13.39,0,0,0-2-.18h-2Z"/><path d="M8.44,39.13l-.9,0A11.52,11.52,0,0,1,5.67,39,5.89,5.89,0,0,1,4,38.4a5.16,5.16,0,0,1-1.39-1,5.19,5.19,0,0,1-1-1.4,5.79,5.79,0,0,1-.55-1.66,12.1,12.1,0,0,1-.16-1.87c0-.21,0-.92,0-.92V8.44s0-.69,0-.89a12,12,0,0,1,.16-1.87A5.69,5.69,0,0,1,1.6,4a5.06,5.06,0,0,1,1-1.4A5.52,5.52,0,0,1,4,1.6a5.79,5.79,0,0,1,1.66-.55A12.1,12.1,0,0,1,7.54.89H112.13a12.08,12.08,0,0,1,1.86.16,6,6,0,0,1,1.67.55A5.49,5.49,0,0,1,118.07,4a5.92,5.92,0,0,1,.54,1.65,13.68,13.68,0,0,1,.17,1.88v.89c0,.38,0,.74,0,1.1V30.46c0,.37,0,.72,0,1.08v.93a13.12,13.12,0,0,1-.17,1.85,5.85,5.85,0,0,1-.54,1.67,5.42,5.42,0,0,1-1,1.39,5.19,5.19,0,0,1-1.4,1A5.59,5.59,0,0,1,114,39a11.52,11.52,0,0,1-1.87.16l-.9,0H8.44Z"/><g id="_Group_" data-name="&lt;Group&gt;"><g id="_Group_2" data-name="&lt;Group&gt;"><g id="_Group_3" data-name="&lt;Group&gt;"><path id="_Path_" data-name="&lt;Path&gt;" class="cls-2" d="M24.77,20.3a4.92,4.92,0,0,1,2.36-4.15,5.08,5.08,0,0,0-4-2.16c-1.67-.18-3.3,1-4.16,1s-2.19-1-3.61-1a5.31,5.31,0,0,0-4.47,2.73C9,20.11,10.4,25,12.25,27.74c.93,1.33,2,2.81,3.43,2.75s1.9-.88,3.58-.88,2.14.88,3.59.85,2.43-1.33,3.32-2.67a11.09,11.09,0,0,0,1.52-3.09A4.77,4.77,0,0,1,24.77,20.3Z"/><path id="_Path_2" data-name="&lt;Path&gt;" class="cls-2" d="M22,12.21a4.89,4.89,0,0,0,1.11-3.49,5,5,0,0,0-3.21,1.66,4.65,4.65,0,0,0-1.14,3.36A4.11,4.11,0,0,0,22,12.21Z"/></g></g><path class="cls-2" d="M42.3,27.14H37.57L36.43,30.5h-2l4.48-12.42H41L45.48,30.5h-2Zm-4.24-1.55h3.75L40,20.14h-.05Z"/><path class="cls-2" d="M55.16,26c0,2.81-1.51,4.62-3.78,4.62A3.09,3.09,0,0,1,48.53,29h0v4.48H46.63v-12h1.8V23h0a3.22,3.22,0,0,1,2.89-1.6C53.65,21.35,55.16,23.16,55.16,26Zm-1.91,0c0-1.83-1-3-2.39-3s-2.38,1.23-2.38,3,1,3.05,2.38,3.05S53.25,27.82,53.25,26Z"/><path class="cls-2" d="M65.12,26c0,2.81-1.5,4.62-3.77,4.62A3.08,3.08,0,0,1,58.5,29h0v4.48H56.6v-12h1.8V23h0a3.22,3.22,0,0,1,2.88-1.6C63.61,21.35,65.12,23.16,65.12,26Zm-1.91,0c0-1.83-.94-3-2.39-3s-2.37,1.23-2.37,3S59.4,29,60.82,29,63.21,27.82,63.21,26Z"/><path class="cls-2" d="M71.71,27c.14,1.23,1.33,2,3,2s2.69-.81,2.69-1.92-.68-1.54-2.29-1.94l-1.61-.39c-2.28-.55-3.33-1.61-3.33-3.34,0-2.15,1.86-3.62,4.51-3.62s4.43,1.47,4.49,3.62H77.26c-.11-1.24-1.14-2-2.63-2s-2.52.75-2.52,1.86c0,.87.65,1.39,2.25,1.79l1.37.33c2.55.6,3.61,1.63,3.61,3.44,0,2.33-1.86,3.78-4.8,3.78-2.75,0-4.61-1.42-4.73-3.66Z"/><path class="cls-2" d="M83.35,19.3v2.14h1.72v1.47H83.35v5c0,.77.34,1.13,1.1,1.13a5,5,0,0,0,.61,0v1.46a5.21,5.21,0,0,1-1,.09c-1.84,0-2.55-.69-2.55-2.45V22.91H80.16V21.44h1.32V19.3Z"/><path class="cls-2" d="M86.06,26c0-2.85,1.68-4.64,4.3-4.64s4.29,1.79,4.29,4.64S93,30.61,90.36,30.61,86.06,28.83,86.06,26Zm6.7,0c0-1.95-.9-3.11-2.4-3.11S88,24,88,26s.89,3.11,2.4,3.11S92.76,27.93,92.76,26Z"/><path class="cls-2" d="M96.19,21.44H98V23h0a2.16,2.16,0,0,1,2.18-1.63,2.58,2.58,0,0,1,.64.07v1.74A2.37,2.37,0,0,0,100,23,1.88,1.88,0,0,0,98,25.13V30.5H96.19Z"/><path class="cls-2" d="M109.38,27.84c-.25,1.64-1.85,2.77-3.89,2.77-2.64,0-4.27-1.77-4.27-4.6s1.64-4.68,4.19-4.68,4.08,1.72,4.08,4.47v.63h-6.4v.12a2.36,2.36,0,0,0,2.44,2.56,2.05,2.05,0,0,0,2.09-1.27Zm-6.28-2.71h4.53a2.17,2.17,0,0,0-2.22-2.29A2.3,2.3,0,0,0,103.1,25.13Z"/></g><g id="_Group_4" data-name="&lt;Group&gt;"><path class="cls-2" d="M38,8.73a1.89,1.89,0,0,1,2,2,1.9,1.9,0,0,1-2,2H36.6v2h-.93v-6ZM36.6,11.87h1.16c.8,0,1.27-.41,1.27-1.15s-.45-1.17-1.27-1.17H36.6Z"/><path class="cls-2" d="M41.19,10.19H42v.7h.07a1.22,1.22,0,0,1,1.22-.77,1.51,1.51,0,0,1,.39,0V11a2.85,2.85,0,0,0-.49,0A1.05,1.05,0,0,0,42.08,12V14.7h-.89Z"/><path class="cls-2" d="M48.4,13.48a1.82,1.82,0,0,1-1.95,1.3,2,2,0,0,1-2.08-2.32,2.07,2.07,0,0,1,2.07-2.35c1.26,0,2,.85,2,2.27v.31H45.27v.05A1.19,1.19,0,0,0,46.47,14a1.08,1.08,0,0,0,1.07-.55ZM45.27,12h2.28a1.09,1.09,0,0,0-1.11-1.17A1.16,1.16,0,0,0,45.27,12Z"/><path class="cls-2" d="M49.66,12.73v-.87h2.71v.87Z"/><path class="cls-2" d="M53.58,12.44a2.13,2.13,0,1,1,4.25,0,2.13,2.13,0,1,1-4.25,0Zm3.33,0c0-1-.44-1.54-1.21-1.54s-1.2.57-1.2,1.54S54.93,14,55.7,14,56.91,13.42,56.91,12.44Z"/><path class="cls-2" d="M59,10.19h.85v.7h.07a1.22,1.22,0,0,1,1.22-.77,1.51,1.51,0,0,1,.39,0V11a2.85,2.85,0,0,0-.49,0A1.05,1.05,0,0,0,59.91,12V14.7H59Z"/><path class="cls-2" d="M62.2,12.44c0-1.42.73-2.32,1.86-2.32a1.49,1.49,0,0,1,1.39.79h.06V8.44h.89V14.7h-.85V14h-.07a1.57,1.57,0,0,1-1.42.78C62.92,14.77,62.2,13.87,62.2,12.44Zm.91,0c0,1,.45,1.53,1.21,1.53s1.21-.58,1.21-1.52-.47-1.53-1.21-1.53S63.11,11.5,63.11,12.44Z"/><path class="cls-2" d="M71.67,13.48a1.83,1.83,0,0,1-2,1.3,2,2,0,0,1-2.08-2.32,2.07,2.07,0,0,1,2.07-2.35c1.25,0,2,.85,2,2.27v.31H68.54v.05A1.19,1.19,0,0,0,69.74,14a1.08,1.08,0,0,0,1.07-.55ZM68.54,12h2.27a1.09,1.09,0,0,0-1.1-1.17A1.16,1.16,0,0,0,68.54,12Z"/><path class="cls-2" d="M72.91,10.19h.86v.7h.07a1.2,1.2,0,0,1,1.21-.77,1.64,1.64,0,0,1,.4,0V11a3,3,0,0,0-.5,0A1.06,1.06,0,0,0,73.8,12V14.7h-.89Z"/><path class="cls-2" d="M78.65,12.44a2.13,2.13,0,1,1,4.25,0,2.13,2.13,0,1,1-4.25,0Zm3.33,0c0-1-.44-1.54-1.21-1.54s-1.2.57-1.2,1.54S80,14,80.77,14,82,13.42,82,12.44Z"/><path class="cls-2" d="M84.09,10.19h.85v.72H85a1.36,1.36,0,0,1,1.35-.8,1.46,1.46,0,0,1,1.55,1.67V14.7H87V12c0-.73-.31-1.09-1-1.09A1,1,0,0,0,85,12.06V14.7h-.89Z"/><path class="cls-2" d="M92.93,9.07v1.15h1V11h-1v2.32c0,.47.2.68.64.68l.34,0v.74a3.45,3.45,0,0,1-.48,0c-1,0-1.39-.34-1.39-1.21V11h-.71v-.74H92V9.07Z"/><path class="cls-2" d="M95.12,8.44H96v2.48h.07a1.39,1.39,0,0,1,1.38-.81A1.48,1.48,0,0,1,99,11.79V14.7h-.89V12c0-.72-.34-1.08-1-1.08A1.06,1.06,0,0,0,96,12.07V14.7h-.89Z"/><path class="cls-2" d="M104.18,13.48a1.82,1.82,0,0,1-2,1.3,2,2,0,0,1-2.08-2.32,2.08,2.08,0,0,1,2.08-2.35c1.25,0,2,.85,2,2.27v.31h-3.18v.05a1.19,1.19,0,0,0,1.2,1.29,1.08,1.08,0,0,0,1.07-.55ZM101.05,12h2.28a1.09,1.09,0,0,0-1.11-1.17A1.16,1.16,0,0,0,101.05,12Z"/></g></svg>