<svg id="livetype" xmlns="http://www.w3.org/2000/svg" viewBox="0 0 119.66 40"><defs><style>.cls-1{fill:#b1b3b5;}.cls-2{fill:#fff;}</style></defs><title>Wishlist on Steam</title><path class="cls-1" d="M110.13,0H7.52a13.51,13.51,0,0,0-2,.18,6.74,6.74,0,0,0-1.9.63A6.3,6.3,0,0,0,2,2,6.07,6.07,0,0,0,.82,3.62a6.74,6.74,0,0,0-.63,1.9,12.18,12.18,0,0,0-.17,2c0,.31,0,.62,0,.92V31.56c0,.31,0,.61,0,.92a12.18,12.18,0,0,0,.17,2,6.8,6.8,0,0,0,.63,1.91A6.19,6.19,0,0,0,2,38a6.07,6.07,0,0,0,1.62,1.18,6.74,6.74,0,0,0,1.9.63,13.51,13.51,0,0,0,2,.18H112.14a13.39,13.39,0,0,0,2-.18,6.91,6.91,0,0,0,1.91-.63A6.24,6.24,0,0,0,117.67,38a6.68,6.68,0,0,0,1.18-1.61,7.12,7.12,0,0,0,.62-1.91,13.39,13.39,0,0,0,.18-2c0-.31,0-.61,0-.92V8.44c0-.3,0-.61,0-.92a13.39,13.39,0,0,0-.18-2,7.05,7.05,0,0,0-.62-1.9A6.54,6.54,0,0,0,117.67,2,6.47,6.47,0,0,0,116.05.82a6.91,6.91,0,0,0-1.91-.63,13.39,13.39,0,0,0-2-.18h-2Z"/><path d="M8.44,39.13l-.9,0A11.52,11.52,0,0,1,5.67,39,5.89,5.89,0,0,1,4,38.4a5.16,5.16,0,0,1-1.39-1,5.19,5.19,0,0,1-1-1.4,5.79,5.79,0,0,1-.55-1.66,12.1,12.1,0,0,1-.16-1.87c0-.21,0-.92,0-.92V8.44s0-.69,0-.89a12,12,0,0,1,.16-1.87A5.69,5.69,0,0,1,1.6,4a5.06,5.06,0,0,1,1-1.4A5.52,5.52,0,0,1,4,1.6a5.79,5.79,0,0,1,1.66-.55A12.1,12.1,0,0,1,7.54.89H112.13a12.08,12.08,0,0,1,1.86.16,6,6,0,0,1,1.67.55A5.49,5.49,0,0,1,118.07,4a5.92,5.92,0,0,1,.54,1.65,13.68,13.68,0,0,1,.17,1.88v.89c0,.38,0,.74,0,1.1V30.46c0,.37,0,.72,0,1.08v.93a13.12,13.12,0,0,1-.17,1.85,5.85,5.85,0,0,1-.54,1.67,5.42,5.42,0,0,1-1,1.39,5.19,5.19,0,0,1-1.4,1A5.59,5.59,0,0,1,114,39a11.52,11.52,0,0,1-1.87.16l-.9,0H8.44Z"/><path class="cls-2" d="M52.94,14.7,51.06,7.28h1L53,11c.21.92.41,1.84.54,2.56h0c.12-.74.35-1.62.6-2.58l1-3.74h1L57,11c.21.89.41,1.76.52,2.54h0c.15-.81.35-1.64.58-2.56l1-3.74h1L58,14.7H57l-.93-3.86a21.31,21.31,0,0,1-.49-2.43h0A23.4,23.4,0,0,1,55,10.84L54,14.7Z"/><path class="cls-2" d="M61.91,7.87a.6.6,0,1,1-1.2,0,.59.59,0,0,1,.6-.6A.58.58,0,0,1,61.91,7.87ZM60.83,14.7V9.38h1V14.7Z"/><path class="cls-2" d="M63.27,13.71a2.65,2.65,0,0,0,1.28.38c.71,0,1-.35,1-.79s-.28-.71-1-1c-1-.35-1.41-.88-1.41-1.51A1.64,1.64,0,0,1,65,9.26a2.56,2.56,0,0,1,1.3.32l-.24.71A2,2,0,0,0,65,10c-.57,0-.88.33-.88.73s.31.64,1,.91c.92.34,1.39.81,1.4,1.6s-.74,1.6-2,1.6a3,3,0,0,1-1.5-.37Z"/><path class="cls-2" d="M67.76,6.89h1v3.32h0a2,2,0,0,1,.69-.69,2.07,2.07,0,0,1,1-.26c.71,0,1.85.43,1.85,2.27V14.7h-1V11.64c0-.86-.33-1.58-1.23-1.58a1.41,1.41,0,0,0-1.31,1,1.32,1.32,0,0,0-.06.46V14.7h-1Z"/><path class="cls-2" d="M73.87,6.89h1V14.7h-1Z"/><path class="cls-2" d="M77.54,7.87a.6.6,0,1,1-1.2,0,.59.59,0,0,1,.6-.6A.58.58,0,0,1,77.54,7.87ZM76.46,14.7V9.38h1V14.7Z"/><path class="cls-2" d="M78.9,13.71a2.65,2.65,0,0,0,1.28.38c.71,0,1-.35,1-.79s-.28-.71-1-1c-1-.35-1.41-.88-1.41-1.51a1.64,1.64,0,0,1,1.84-1.56,2.56,2.56,0,0,1,1.3.32l-.24.71A2,2,0,0,0,80.62,10c-.57,0-.88.33-.88.73s.31.64,1,.91c.92.34,1.39.81,1.4,1.6s-.74,1.6-2,1.6a3,3,0,0,1-1.5-.37Z"/><path class="cls-2" d="M84.55,7.85V9.38h1.39v.73H84.55V13c0,.66.19,1,.74,1a1.85,1.85,0,0,0,.56-.08l0,.74a2.59,2.59,0,0,1-.86.13,1.33,1.33,0,0,1-1-.41A2.05,2.05,0,0,1,83.61,13V10.11h-.83V9.38h.83V8.1Z"/><path class="cls-2" d="M94.19,12a2.61,2.61,0,0,1-2.65,2.83A2.53,2.53,0,0,1,89,12.08a2.6,2.6,0,0,1,2.65-2.82A2.52,2.52,0,0,1,94.19,12ZM90,12.05c0,1.17.67,2,1.61,2S93.2,13.23,93.2,12c0-.9-.45-2-1.6-2S90,11,90,12.05Z"/><path class="cls-2" d="M95.41,10.81c0-.55,0-1,0-1.43h.85l0,.87h0a2,2,0,0,1,1.76-1c.73,0,1.87.44,1.87,2.26V14.7H99V11.63c0-.86-.32-1.58-1.23-1.58a1.39,1.39,0,0,0-1.3,1,1.52,1.52,0,0,0-.07.45V14.7h-1Z"/><path class="cls-2" d="M51.19,28a6.55,6.55,0,0,0,3.1.81c1.49,0,2.32-.7,2.32-1.75s-.64-1.53-2.26-2.12c-2.12-.75-3.47-1.89-3.47-3.72,0-2.1,1.75-3.68,4.53-3.68a6.77,6.77,0,0,1,3.07.64L57.92,20a5.54,5.54,0,0,0-2.56-.61c-1.48,0-2.11.79-2.11,1.55,0,1,.74,1.44,2.45,2.09,2.22.85,3.29,2,3.29,3.81,0,2.06-1.55,3.85-4.85,3.85a7.48,7.48,0,0,1-3.47-.82Z"/><path class="cls-2" d="M63.61,18.6v2.65h2.23V23H63.61v4.08c0,1.13.31,1.71,1.2,1.71a3.89,3.89,0,0,0,.91-.1l0,1.78a5.38,5.38,0,0,1-1.71.24,2.72,2.72,0,0,1-2-.77,3.68,3.68,0,0,1-.73-2.59V23H60V21.25h1.32v-2.1Z"/><path class="cls-2" d="M69.14,26.52c.06,1.68,1.36,2.41,2.85,2.41a7.07,7.07,0,0,0,2.56-.43l.34,1.61a8.28,8.28,0,0,1-3.23.59A4.38,4.38,0,0,1,66.9,26c0-2.56,1.55-5,4.52-5s4,2.47,4,4.5a4.44,4.44,0,0,1-.09,1Zm4.07-1.63a2,2,0,0,0-1.93-2.25,2.28,2.28,0,0,0-2.14,2.25Z"/><path class="cls-2" d="M82.49,30.5l-.16-1h0a3.38,3.38,0,0,1-2.73,1.24A2.74,2.74,0,0,1,76.64,28c0-2.33,2.08-3.51,5.48-3.5V24.3c0-.61-.24-1.62-1.88-1.61a4.9,4.9,0,0,0-2.48.69l-.46-1.52A6.69,6.69,0,0,1,80.65,21c3,0,3.81,1.87,3.81,3.9v3.33a14.25,14.25,0,0,0,.14,2.23ZM82.18,26C80.54,26,79,26.29,79,27.7A1.23,1.23,0,0,0,80.29,29a1.9,1.9,0,0,0,1.83-1.28,1.71,1.71,0,0,0,.06-.5Z"/><path class="cls-2" d="M86.94,24c0-1.07,0-1.95-.08-2.75h2L89,22.61h0A3.19,3.19,0,0,1,91.87,21a2.65,2.65,0,0,1,2.56,1.7h0a3.8,3.8,0,0,1,1.13-1.16A3.23,3.23,0,0,1,97.48,21c1.53,0,3.09,1.05,3.09,4V30.5H98.29V25.38c0-1.54-.54-2.45-1.65-2.45A1.77,1.77,0,0,0,95,24.17a2.77,2.77,0,0,0-.12.78V30.5H92.61V25.15c0-1.3-.52-2.22-1.59-2.22a1.86,1.86,0,0,0-1.69,1.33,2.43,2.43,0,0,0-.11.77V30.5H86.94Z"/><path class="cls-2" d="M25.45,15.11v.09l-4.11,6a4.66,4.66,0,0,0-2,.34,5.3,5.3,0,0,0-.78.42l-9-3.72a18.67,18.67,0,0,0,.66,6l6.38,2.63a4.66,4.66,0,0,0,8.85.79,4.92,4.92,0,0,0,.36-1.92l5.88-4.21h.14a6.4,6.4,0,1,0-6.38-6.4Zm-1,12.1a3.6,3.6,0,0,1-6.56.18l2.08.86a2.65,2.65,0,0,0,2-4.89l-2.15-.89a3.58,3.58,0,0,1,4.59,2,3.59,3.59,0,0,1,0,2.75m7.36-7.84a4.26,4.26,0,1,1,4.26-4.26,4.26,4.26,0,0,1-4.26,4.26m-3.18-4.26a3.19,3.19,0,1,1,3.19,3.19A3.19,3.19,0,0,1,28.65,15.11Z"/></svg>